<svg width="561" height="148" viewBox="0 0 561 148" fill="none" xmlns="http://www.w3.org/2000/svg">
<path d="M230.2 117C230.2 120.48 229.75 123.45 228.84 125.92C227.93 128.39 226.63 130.41 224.93 131.97C223.23 133.53 221.17 134.68 218.73 135.41C216.29 136.14 213.4 136.51 210.04 136.51H200.99C200.35 136.51 199.8 136.32 199.36 135.94C198.92 135.56 198.7 134.94 198.7 134.08V101.03C198.7 100.17 198.92 99.55 199.36 99.17C199.8 98.79 200.34 98.6 200.99 98.6H210.72C214.1 98.6 216.97 99 219.32 99.79C221.67 100.58 223.66 101.75 225.27 103.31C226.88 104.87 228.11 106.78 228.95 109.07C229.79 111.36 230.2 113.99 230.2 117ZM222.23 117.26C222.23 115.46 222.02 113.79 221.6 112.25C221.18 110.71 220.51 109.37 219.58 108.24C218.65 107.11 217.46 106.22 216.01 105.59C214.56 104.96 212.65 104.64 210.28 104.64H206.38V130.42H210.39C212.5 130.42 214.28 130.15 215.72 129.6C217.16 129.05 218.37 128.23 219.34 127.12C220.31 126.01 221.03 124.64 221.51 123C221.99 121.36 222.23 119.45 222.23 117.26Z" fill="#6E6D71"/>
<path d="M265 133.49C265 134.06 264.98 134.53 264.93 134.91C264.88 135.29 264.81 135.6 264.71 135.83C264.61 136.06 264.49 136.24 264.34 136.34C264.19 136.44 264.03 136.5 263.86 136.5H244.82C244.18 136.5 243.63 136.31 243.19 135.93C242.75 135.55 242.53 134.93 242.53 134.07V101.02C242.53 100.16 242.75 99.54 243.19 99.16C243.63 98.78 244.17 98.59 244.82 98.59H263.75C263.93 98.59 264.08 98.64 264.22 98.74C264.36 98.84 264.47 99.01 264.57 99.25C264.67 99.49 264.74 99.81 264.79 100.19C264.84 100.57 264.86 101.05 264.86 101.64C264.86 102.19 264.84 102.65 264.79 103.03C264.74 103.41 264.67 103.72 264.57 103.95C264.47 104.18 264.36 104.36 264.22 104.46C264.08 104.56 263.93 104.62 263.75 104.62H250.21V113.88H261.67C261.85 113.88 262.01 113.93 262.15 114.04C262.29 114.15 262.42 114.31 262.52 114.54C262.62 114.77 262.69 115.07 262.74 115.45C262.79 115.83 262.81 116.29 262.81 116.84C262.81 117.41 262.79 117.88 262.74 118.25C262.69 118.62 262.62 118.92 262.52 119.14C262.42 119.36 262.3 119.53 262.15 119.62C262 119.71 261.84 119.77 261.67 119.77H250.21V130.46H263.86C264.04 130.46 264.2 130.51 264.34 130.62C264.48 130.73 264.61 130.9 264.71 131.13C264.81 131.36 264.88 131.67 264.93 132.05C264.98 132.43 265 132.93 265 133.49Z" fill="#6E6D71"/>
<path d="M296.66 135.16C296.56 135.49 296.44 135.76 296.28 135.97C296.12 136.18 295.87 136.33 295.52 136.44C295.17 136.55 294.69 136.62 294.08 136.65C293.47 136.68 292.68 136.69 291.71 136.69C290.93 136.69 290.26 136.69 289.7 136.68C289.14 136.67 288.67 136.65 288.28 136.61C287.89 136.57 287.57 136.51 287.33 136.43C287.09 136.35 286.88 136.25 286.71 136.14C286.54 136.03 286.42 135.88 286.33 135.72C286.24 135.56 286.16 135.34 286.08 135.09L274.8 101.49C274.57 100.79 274.42 100.23 274.38 99.82C274.34 99.41 274.43 99.1 274.67 98.9C274.91 98.7 275.33 98.57 275.92 98.52C276.51 98.47 277.33 98.45 278.38 98.45C279.28 98.45 279.98 98.47 280.49 98.51C281 98.55 281.39 98.62 281.66 98.72C281.93 98.82 282.12 98.96 282.23 99.16C282.34 99.36 282.44 99.6 282.54 99.89L291.77 129.13H291.8L300.85 100.04C300.93 99.71 301.03 99.44 301.14 99.23C301.25 99.02 301.46 98.86 301.74 98.75C302.02 98.64 302.43 98.55 302.96 98.52C303.49 98.49 304.21 98.46 305.13 98.46C306.03 98.46 306.73 98.49 307.22 98.55C307.71 98.61 308.06 98.75 308.25 98.97C308.44 99.19 308.49 99.51 308.43 99.92C308.37 100.33 308.21 100.88 307.98 101.56L296.66 135.16Z" fill="#6E6D71"/>
<path d="M341.28 125.14C341.28 127.13 340.91 128.88 340.17 130.38C339.43 131.88 338.42 133.14 337.15 134.14C335.88 135.14 334.4 135.9 332.7 136.41C331 136.92 329.18 137.17 327.25 137.17C325.94 137.17 324.73 137.06 323.6 136.85C322.47 136.64 321.49 136.38 320.63 136.07C319.77 135.76 319.05 135.45 318.48 135.12C317.91 134.79 317.49 134.5 317.23 134.24C316.97 133.98 316.8 133.62 316.69 133.14C316.58 132.66 316.53 131.97 316.53 131.07C316.53 130.46 316.55 129.96 316.59 129.55C316.63 129.14 316.69 128.81 316.78 128.55C316.87 128.29 316.99 128.12 317.13 128.01C317.27 127.9 317.45 127.85 317.64 127.85C317.91 127.85 318.3 128.01 318.8 128.33C319.3 128.65 319.94 129.01 320.72 129.4C321.5 129.79 322.43 130.15 323.52 130.47C324.61 130.79 325.86 130.95 327.28 130.95C328.22 130.95 329.06 130.84 329.8 130.61C330.54 130.38 331.17 130.07 331.69 129.66C332.21 129.25 332.6 128.74 332.88 128.14C333.16 127.54 333.29 126.86 333.29 126.12C333.29 125.26 333.06 124.52 332.59 123.91C332.12 123.3 331.51 122.75 330.76 122.27C330.01 121.79 329.15 121.34 328.2 120.92C327.25 120.5 326.26 120.06 325.24 119.59C324.22 119.12 323.24 118.59 322.28 117.99C321.32 117.39 320.47 116.68 319.72 115.85C318.97 115.02 318.36 114.04 317.89 112.91C317.42 111.78 317.19 110.42 317.19 108.84C317.19 107.02 317.53 105.43 318.2 104.05C318.87 102.67 319.78 101.53 320.92 100.62C322.06 99.71 323.41 99.03 324.96 98.58C326.51 98.13 328.16 97.91 329.9 97.91C330.8 97.91 331.7 97.98 332.6 98.12C333.5 98.26 334.34 98.44 335.12 98.68C335.9 98.92 336.59 99.18 337.2 99.47C337.81 99.76 338.21 100.01 338.4 100.2C338.59 100.39 338.73 100.56 338.8 100.7C338.87 100.84 338.93 101.02 338.98 101.24C339.03 101.46 339.06 101.75 339.08 102.09C339.1 102.43 339.11 102.86 339.11 103.36C339.11 103.93 339.1 104.4 339.07 104.8C339.04 105.2 338.99 105.51 338.92 105.77C338.85 106.03 338.75 106.21 338.63 106.33C338.51 106.45 338.33 106.51 338.12 106.51C337.91 106.51 337.56 106.37 337.09 106.1C336.62 105.83 336.05 105.53 335.36 105.21C334.67 104.89 333.89 104.59 332.99 104.33C332.09 104.07 331.11 103.93 330.03 103.93C329.19 103.93 328.46 104.03 327.83 104.24C327.2 104.45 326.68 104.73 326.26 105.09C325.84 105.45 325.53 105.89 325.32 106.39C325.11 106.89 325.01 107.43 325.01 108C325.01 108.84 325.24 109.57 325.7 110.18C326.16 110.79 326.77 111.34 327.55 111.82C328.33 112.3 329.2 112.75 330.17 113.17C331.14 113.59 332.14 114.03 333.16 114.5C334.18 114.97 335.17 115.5 336.15 116.1C337.13 116.7 338 117.41 338.76 118.24C339.52 119.07 340.14 120.05 340.61 121.17C341.08 122.29 341.28 123.62 341.28 125.14Z" fill="#6E6D71"/>
<path d="M241.13 62.84C241.13 66.33 240.48 69.39 239.18 72.02C237.88 74.65 236.12 76.85 233.9 78.61C231.68 80.37 229.08 81.69 226.11 82.58C223.14 83.47 219.96 83.91 216.57 83.91C214.28 83.91 212.15 83.72 210.19 83.35C208.22 82.97 206.49 82.52 204.99 81.99C203.49 81.46 202.23 80.91 201.22 80.32C200.21 79.74 199.48 79.23 199.04 78.78C198.59 78.34 198.28 77.7 198.09 76.86C197.9 76.02 197.81 74.82 197.81 73.25C197.81 72.19 197.84 71.3 197.91 70.58C197.98 69.86 198.09 69.28 198.24 68.84C198.39 68.4 198.6 68.08 198.86 67.89C199.12 67.7 199.41 67.61 199.76 67.61C200.24 67.61 200.91 67.89 201.79 68.46C202.66 69.02 203.78 69.65 205.15 70.33C206.52 71.01 208.15 71.64 210.05 72.2C211.95 72.76 214.14 73.05 216.64 73.05C218.28 73.05 219.75 72.85 221.05 72.46C222.35 72.07 223.45 71.51 224.36 70.79C225.27 70.07 225.96 69.18 226.44 68.12C226.92 67.06 227.16 65.88 227.16 64.58C227.16 63.08 226.75 61.79 225.93 60.71C225.11 59.63 224.04 58.68 222.72 57.84C221.4 57 219.91 56.22 218.23 55.48C216.56 54.75 214.83 53.97 213.05 53.15C211.27 52.33 209.55 51.4 207.87 50.36C206.19 49.32 204.7 48.07 203.38 46.62C202.06 45.17 201 43.45 200.17 41.47C199.34 39.49 198.94 37.11 198.94 34.34C198.94 31.16 199.53 28.37 200.71 25.96C201.89 23.55 203.48 21.55 205.48 19.96C207.48 18.37 209.84 17.18 212.56 16.4C215.28 15.61 218.16 15.22 221.2 15.22C222.77 15.22 224.34 15.34 225.92 15.58C227.49 15.82 228.96 16.14 230.33 16.55C231.7 16.96 232.91 17.42 233.97 17.93C235.03 18.44 235.73 18.87 236.07 19.21C236.41 19.55 236.64 19.84 236.76 20.08C236.88 20.32 236.98 20.64 237.07 21.03C237.15 21.42 237.22 21.92 237.25 22.52C237.28 23.12 237.3 23.86 237.3 24.75C237.3 25.74 237.27 26.58 237.22 27.26C237.17 27.94 237.08 28.51 236.96 28.95C236.84 29.39 236.67 29.72 236.45 29.92C236.23 30.13 235.93 30.23 235.55 30.23C235.17 30.23 234.58 29.99 233.76 29.51C232.94 29.03 231.93 28.51 230.73 27.95C229.53 27.39 228.15 26.87 226.58 26.41C225.01 25.95 223.28 25.72 221.4 25.72C219.93 25.72 218.65 25.9 217.55 26.26C216.46 26.62 215.54 27.12 214.81 27.75C214.07 28.38 213.53 29.14 213.17 30.03C212.81 30.92 212.63 31.86 212.63 32.85C212.63 34.32 213.03 35.59 213.84 36.67C214.64 37.75 215.72 38.7 217.07 39.54C218.42 40.38 219.95 41.16 221.66 41.9C223.37 42.64 225.11 43.41 226.89 44.23C228.67 45.05 230.41 45.98 232.12 47.02C233.83 48.06 235.35 49.31 236.68 50.76C238.01 52.21 239.09 53.92 239.91 55.89C240.72 57.86 241.13 60.18 241.13 62.84Z" fill="white"/>
<path d="M307.36 36.54C307.36 40.27 306.78 43.56 305.62 46.43C304.46 49.3 302.77 51.72 300.54 53.68C298.32 55.65 295.59 57.14 292.36 58.17C289.13 59.2 285.33 59.71 280.95 59.71H275.41V80.88C275.41 81.22 275.3 81.53 275.08 81.8C274.86 82.07 274.49 82.3 273.98 82.47C273.47 82.64 272.78 82.78 271.93 82.88C271.08 82.98 269.98 83.03 268.65 83.03C267.35 83.03 266.27 82.98 265.39 82.88C264.52 82.78 263.83 82.64 263.31 82.47C262.79 82.3 262.44 82.08 262.23 81.8C262.02 81.53 261.92 81.22 261.92 80.88V21.2C261.92 19.59 262.34 18.39 263.18 17.59C264.02 16.79 265.12 16.38 266.49 16.38H282.13C283.7 16.38 285.2 16.44 286.62 16.56C288.04 16.68 289.74 16.94 291.72 17.33C293.7 17.72 295.71 18.45 297.74 19.51C299.77 20.57 301.51 21.91 302.94 23.53C304.38 25.15 305.47 27.05 306.22 29.22C306.98 31.41 307.36 33.84 307.36 36.54ZM293.26 37.52C293.26 35.2 292.85 33.28 292.03 31.78C291.21 30.28 290.2 29.17 289 28.45C287.8 27.73 286.55 27.28 285.23 27.09C283.91 26.9 282.56 26.81 281.15 26.81H275.41V49.32H281.46C283.61 49.32 285.42 49.03 286.87 48.45C288.32 47.87 289.51 47.06 290.43 46.01C291.35 44.97 292.05 43.72 292.53 42.27C293.02 40.81 293.26 39.23 293.26 37.52Z" fill="white"/>
<path d="M377.54 80.99C377.54 81.37 377.47 81.68 377.33 81.94C377.19 82.2 376.87 82.41 376.36 82.58C375.85 82.75 375.1 82.87 374.1 82.94C373.11 83.01 371.76 83.04 370.05 83.04C368.61 83.04 367.47 83.01 366.61 82.94C365.76 82.87 365.08 82.74 364.58 82.56C364.08 82.37 363.73 82.13 363.53 81.84C363.32 81.55 363.15 81.2 363.02 80.79L357.07 65.97C356.35 64.3 355.65 62.81 354.97 61.51C354.29 60.21 353.53 59.13 352.69 58.25C351.85 57.38 350.89 56.72 349.79 56.28C348.7 55.84 347.43 55.61 346 55.61H341.8V80.89C341.8 81.23 341.69 81.54 341.47 81.81C341.25 82.08 340.88 82.31 340.37 82.48C339.86 82.65 339.17 82.79 338.32 82.89C337.47 82.99 336.37 83.04 335.04 83.04C333.74 83.04 332.66 82.99 331.78 82.89C330.91 82.79 330.22 82.65 329.7 82.48C329.18 82.31 328.83 82.09 328.62 81.81C328.41 81.54 328.31 81.23 328.31 80.89V20.65C328.31 19.15 328.69 18.06 329.46 17.4C330.23 16.73 331.18 16.4 332.31 16.4H349.48C351.22 16.4 352.66 16.43 353.79 16.5C354.92 16.57 355.94 16.65 356.87 16.76C359.54 17.14 361.94 17.79 364.07 18.71C366.21 19.63 368.02 20.84 369.5 22.32C370.99 23.81 372.12 25.57 372.91 27.6C373.7 29.63 374.09 31.97 374.09 34.6C374.09 36.82 373.81 38.85 373.24 40.68C372.68 42.51 371.85 44.14 370.75 45.58C369.65 47.02 368.31 48.26 366.7 49.32C365.09 50.38 363.27 51.24 361.21 51.88C362.2 52.36 363.13 52.94 364 53.62C364.87 54.3 365.69 55.13 366.46 56.11C367.23 57.08 367.95 58.2 368.64 59.44C369.32 60.69 369.99 62.1 370.64 63.67L376.23 76.74C376.74 78.04 377.08 78.99 377.26 79.58C377.45 80.18 377.54 80.65 377.54 80.99ZM360.16 35.98C360.16 33.79 359.66 31.95 358.67 30.44C357.68 28.94 356.06 27.88 353.8 27.26C353.12 27.09 352.34 26.95 351.47 26.85C350.6 26.75 349.39 26.7 347.86 26.7H341.81V45.52H348.68C350.59 45.52 352.27 45.29 353.7 44.83C355.14 44.37 356.33 43.72 357.29 42.88C358.25 42.04 358.96 41.04 359.44 39.88C359.92 38.71 360.16 37.41 360.16 35.98Z" fill="white"/>
<path d="M411.47 80.89C411.47 81.23 411.36 81.54 411.14 81.81C410.92 82.08 410.55 82.31 410.04 82.48C409.53 82.65 408.84 82.79 407.99 82.89C407.14 82.99 406.04 83.04 404.71 83.04C403.41 83.04 402.33 82.99 401.46 82.89C400.59 82.79 399.9 82.65 399.38 82.48C398.87 82.31 398.5 82.09 398.28 81.81C398.06 81.54 397.95 81.23 397.95 80.89V18.24C397.95 17.9 398.06 17.59 398.28 17.32C398.5 17.05 398.88 16.82 399.41 16.65C399.94 16.48 400.63 16.34 401.49 16.24C402.34 16.14 403.42 16.09 404.72 16.09C406.05 16.09 407.15 16.14 408 16.24C408.85 16.34 409.54 16.48 410.05 16.65C410.56 16.82 410.93 17.04 411.15 17.32C411.37 17.59 411.48 17.9 411.48 18.24V80.89H411.47Z" fill="white"/>
<path d="M491.13 78.02C491.13 78.81 490.99 79.51 490.72 80.12C490.45 80.74 490.08 81.25 489.62 81.66C489.16 82.07 488.61 82.37 487.98 82.56C487.35 82.75 486.71 82.84 486.06 82.84H480.32C479.12 82.84 478.09 82.72 477.22 82.48C476.35 82.24 475.55 81.81 474.81 81.17C474.07 80.54 473.37 79.68 472.68 78.61C472 77.53 471.23 76.14 470.37 74.43L453.86 43.41C452.9 41.56 451.93 39.57 450.94 37.44C449.95 35.3 449.06 33.23 448.27 31.21H448.17C448.31 33.67 448.41 36.12 448.48 38.57C448.55 41.01 448.58 43.54 448.58 46.13V80.84C448.58 81.18 448.49 81.49 448.3 81.76C448.11 82.03 447.79 82.26 447.33 82.45C446.87 82.64 446.24 82.78 445.46 82.89C444.67 82.99 443.67 83.04 442.44 83.04C441.24 83.04 440.25 82.99 439.47 82.89C438.68 82.79 438.07 82.64 437.62 82.45C437.18 82.26 436.87 82.03 436.7 81.76C436.53 81.49 436.44 81.18 436.44 80.84V21.21C436.44 19.6 436.91 18.4 437.85 17.6C438.79 16.8 439.94 16.39 441.31 16.39H448.54C449.84 16.39 450.93 16.5 451.82 16.72C452.71 16.94 453.5 17.31 454.2 17.82C454.9 18.33 455.56 19.04 456.17 19.95C456.79 20.86 457.42 21.98 458.07 23.31L470.99 47.56C471.74 49.03 472.48 50.47 473.22 51.89C473.95 53.31 474.66 54.73 475.35 56.15C476.03 57.57 476.7 58.96 477.35 60.33C478 61.7 478.63 63.06 479.25 64.43H479.3C479.2 62.04 479.12 59.54 479.07 56.94C479.02 54.34 478.99 51.86 478.99 49.51V18.39C478.99 18.05 479.09 17.74 479.3 17.47C479.51 17.2 479.85 16.96 480.33 16.75C480.81 16.54 481.44 16.4 482.23 16.31C483.02 16.23 484.02 16.18 485.25 16.18C486.41 16.18 487.39 16.22 488.17 16.31C488.96 16.4 489.56 16.54 489.99 16.75C490.42 16.96 490.72 17.2 490.89 17.47C491.06 17.74 491.15 18.05 491.15 18.39V78.02H491.13Z" fill="white"/>
<path d="M560.23 21.93C560.23 22.92 560.19 23.77 560.1 24.47C560.01 25.17 559.89 25.73 559.72 26.16C559.55 26.59 559.34 26.9 559.08 27.11C558.82 27.32 558.54 27.42 558.23 27.42H541.62V80.89C541.62 81.23 541.51 81.54 541.29 81.81C541.07 82.08 540.7 82.31 540.19 82.48C539.68 82.65 538.98 82.79 538.11 82.89C537.24 82.99 536.15 83.04 534.86 83.04C533.56 83.04 532.48 82.99 531.6 82.89C530.73 82.79 530.04 82.65 529.52 82.48C529.01 82.31 528.64 82.09 528.42 81.81C528.2 81.54 528.09 81.23 528.09 80.89V27.42H511.48C511.14 27.42 510.85 27.32 510.61 27.11C510.37 26.9 510.17 26.59 509.99 26.16C509.82 25.73 509.69 25.17 509.61 24.47C509.52 23.77 509.48 22.92 509.48 21.93C509.48 20.9 509.52 20.03 509.61 19.32C509.69 18.6 509.82 18.03 509.99 17.6C510.16 17.17 510.37 16.87 510.61 16.68C510.85 16.49 511.14 16.4 511.48 16.4H558.24C558.55 16.4 558.83 16.49 559.09 16.68C559.35 16.87 559.56 17.18 559.73 17.6C559.9 18.03 560.03 18.6 560.11 19.32C560.19 20.03 560.23 20.9 560.23 21.93Z" fill="white"/>
<path d="M164.45 147.53C163.62 147.53 162.95 146.86 162.95 146.03V2.03003C162.95 1.20003 163.62 0.530029 164.45 0.530029C165.28 0.530029 165.95 1.20003 165.95 2.03003V146.03C165.95 146.86 165.28 147.53 164.45 147.53Z" fill="#6E6D71"/>
<path d="M91.86 47.61L76.17 73.73L101.99 118.4H133.33L91.86 47.61Z" fill="url(#paint0_linear_1_59)"/>
<path d="M42.04 97.81L28 73.73L57.25 22.17L70.95 22.16L41.75 73.72L67.78 118.39H88.31L62.51 73.72L105.43 2.03003L50.26 2.02002C43.26 2.02002 36.8 5.75 33.3 11.81L3.03 64.22C-0.470001 70.28 -0.470001 77.74 3.03 83.8L33.28 136.22C36.78 142.28 42.4 146.02 50.23 146.01H70.18L42.04 97.81Z" fill="url(#paint1_linear_1_59)"/>
<path d="M70.48 123.13L83.88 146.03L109.11 146.04C116.98 146.04 122.04 142.56 125.97 136.25L133.34 123.11L70.48 123.13Z" fill="url(#paint2_linear_1_59)"/>
<path d="M130.6 19.86L118.14 3.62L94.61 42.62L110.07 69L127.63 39.37C131.3 33.4 134.46 26.11 130.6 19.86Z" fill="url(#paint3_linear_1_59)"/>
<defs>
<linearGradient id="paint0_linear_1_59" x1="77.2821" y1="70.1177" x2="141.319" y2="111.705" gradientUnits="userSpaceOnUse">
<stop stop-color="#C4161C"/>
<stop offset="0.543" stop-color="#ED1C24"/>
<stop offset="1" stop-color="#C4161C"/>
</linearGradient>
<linearGradient id="paint1_linear_1_59" x1="49.4272" y1="146.303" x2="54.517" y2="0.555155" gradientUnits="userSpaceOnUse">
<stop stop-color="#C4161C"/>
<stop offset="0.543" stop-color="#ED1C24"/>
<stop offset="1" stop-color="#C4161C"/>
</linearGradient>
<linearGradient id="paint2_linear_1_59" x1="81.4069" y1="142.476" x2="362.256" y2="-39.9102" gradientUnits="userSpaceOnUse">
<stop stop-color="#C4161C"/>
<stop offset="0.543" stop-color="#ED1C24"/>
<stop offset="1" stop-color="#C4161C"/>
</linearGradient>
<linearGradient id="paint3_linear_1_59" x1="112.023" y1="78.1233" x2="114.627" y2="3.53136" gradientUnits="userSpaceOnUse">
<stop stop-color="#C4161C"/>
<stop offset="0.543" stop-color="#ED1C24"/>
<stop offset="1" stop-color="#C4161C"/>
</linearGradient>
</defs>
</svg>
