<svg width="561" height="148" viewBox="0 0 561 148" fill="none" xmlns="http://www.w3.org/2000/svg">
<path d="M230.2 116.65C230.2 120.13 229.75 123.1 228.84 125.57C227.93 128.04 226.63 130.06 224.93 131.62C223.23 133.18 221.17 134.33 218.73 135.06C216.29 135.79 213.4 136.16 210.04 136.16H200.99C200.35 136.16 199.8 135.97 199.36 135.59C198.92 135.21 198.7 134.59 198.7 133.73V100.68C198.7 99.82 198.92 99.2 199.36 98.82C199.8 98.44 200.34 98.25 200.99 98.25H210.72C214.1 98.25 216.97 98.65 219.32 99.44C221.67 100.23 223.66 101.4 225.27 102.96C226.88 104.52 228.11 106.43 228.95 108.72C229.79 111.01 230.2 113.64 230.2 116.65ZM222.23 116.91C222.23 115.11 222.02 113.44 221.6 111.9C221.18 110.36 220.51 109.02 219.58 107.89C218.65 106.76 217.46 105.87 216.01 105.24C214.56 104.61 212.65 104.29 210.28 104.29H206.38V130.07H210.39C212.5 130.07 214.28 129.8 215.72 129.25C217.16 128.7 218.37 127.88 219.34 126.77C220.31 125.66 221.03 124.29 221.51 122.65C221.99 121.01 222.23 119.1 222.23 116.91Z" fill="#6E6D71"/>
<path d="M265 133.14C265 133.71 264.98 134.18 264.93 134.56C264.88 134.94 264.81 135.25 264.71 135.48C264.61 135.71 264.49 135.89 264.34 135.99C264.19 136.09 264.03 136.15 263.86 136.15H244.82C244.18 136.15 243.63 135.96 243.19 135.58C242.75 135.2 242.53 134.58 242.53 133.72V100.67C242.53 99.81 242.75 99.19 243.19 98.81C243.63 98.43 244.17 98.24 244.82 98.24H263.75C263.93 98.24 264.08 98.29 264.22 98.39C264.36 98.49 264.47 98.66 264.57 98.9C264.67 99.14 264.74 99.46 264.79 99.84C264.84 100.22 264.86 100.7 264.86 101.29C264.86 101.84 264.84 102.3 264.79 102.68C264.74 103.06 264.67 103.37 264.57 103.6C264.47 103.83 264.36 104.01 264.22 104.11C264.08 104.21 263.93 104.27 263.75 104.27H250.21V113.53H261.67C261.85 113.53 262.01 113.58 262.15 113.69C262.29 113.8 262.42 113.96 262.52 114.19C262.62 114.42 262.69 114.72 262.74 115.1C262.79 115.48 262.81 115.94 262.81 116.49C262.81 117.06 262.79 117.53 262.74 117.9C262.69 118.27 262.62 118.57 262.52 118.79C262.42 119.01 262.3 119.18 262.15 119.27C262 119.36 261.84 119.42 261.67 119.42H250.21V130.11H263.86C264.04 130.11 264.2 130.16 264.34 130.27C264.48 130.38 264.61 130.55 264.71 130.78C264.81 131.01 264.88 131.32 264.93 131.7C264.98 132.08 265 132.58 265 133.14Z" fill="#6E6D71"/>
<path d="M296.66 134.81C296.56 135.14 296.44 135.41 296.28 135.62C296.12 135.83 295.87 135.98 295.52 136.09C295.17 136.2 294.69 136.27 294.08 136.3C293.47 136.33 292.68 136.34 291.71 136.34C290.93 136.34 290.26 136.34 289.7 136.33C289.14 136.32 288.67 136.3 288.28 136.26C287.89 136.22 287.57 136.16 287.33 136.08C287.09 136 286.88 135.9 286.71 135.79C286.54 135.68 286.42 135.53 286.33 135.37C286.24 135.21 286.16 134.99 286.08 134.74L274.8 101.14C274.57 100.44 274.42 99.88 274.38 99.47C274.34 99.06 274.43 98.75 274.67 98.55C274.91 98.35 275.33 98.22 275.92 98.17C276.51 98.12 277.33 98.1 278.38 98.1C279.28 98.1 279.98 98.12 280.49 98.16C281 98.2 281.39 98.27 281.66 98.37C281.93 98.47 282.12 98.61 282.23 98.81C282.34 99.01 282.44 99.25 282.54 99.54L291.77 128.78H291.8L300.85 99.69C300.93 99.36 301.03 99.09 301.14 98.88C301.25 98.67 301.46 98.51 301.74 98.4C302.02 98.29 302.43 98.2 302.96 98.17C303.49 98.14 304.21 98.11 305.13 98.11C306.03 98.11 306.73 98.14 307.22 98.2C307.71 98.26 308.06 98.4 308.25 98.62C308.44 98.84 308.49 99.16 308.43 99.57C308.37 99.98 308.21 100.53 307.98 101.21L296.66 134.81Z" fill="#6E6D71"/>
<path d="M341.28 124.79C341.28 126.78 340.91 128.53 340.17 130.03C339.43 131.53 338.42 132.79 337.15 133.79C335.88 134.79 334.4 135.55 332.7 136.06C331 136.57 329.18 136.82 327.25 136.82C325.94 136.82 324.73 136.71 323.6 136.5C322.47 136.29 321.49 136.03 320.63 135.72C319.77 135.41 319.05 135.1 318.48 134.77C317.91 134.44 317.49 134.15 317.23 133.89C316.97 133.63 316.8 133.27 316.69 132.79C316.58 132.31 316.53 131.62 316.53 130.72C316.53 130.11 316.55 129.61 316.59 129.2C316.63 128.79 316.69 128.46 316.78 128.2C316.87 127.94 316.99 127.77 317.13 127.66C317.27 127.55 317.45 127.5 317.64 127.5C317.91 127.5 318.3 127.66 318.8 127.98C319.3 128.3 319.94 128.66 320.72 129.05C321.5 129.44 322.43 129.8 323.52 130.12C324.61 130.44 325.86 130.6 327.28 130.6C328.22 130.6 329.06 130.49 329.8 130.26C330.54 130.03 331.17 129.72 331.69 129.31C332.21 128.9 332.6 128.39 332.88 127.79C333.16 127.19 333.29 126.51 333.29 125.77C333.29 124.91 333.06 124.17 332.59 123.56C332.12 122.95 331.51 122.4 330.76 121.92C330.01 121.44 329.15 120.99 328.2 120.57C327.25 120.15 326.26 119.71 325.24 119.24C324.22 118.77 323.24 118.24 322.28 117.64C321.32 117.04 320.47 116.33 319.72 115.5C318.97 114.67 318.36 113.69 317.89 112.56C317.42 111.43 317.19 110.07 317.19 108.49C317.19 106.67 317.53 105.08 318.2 103.7C318.87 102.32 319.78 101.18 320.92 100.27C322.06 99.36 323.41 98.68 324.96 98.23C326.51 97.78 328.16 97.56 329.9 97.56C330.8 97.56 331.7 97.63 332.6 97.77C333.5 97.91 334.34 98.09 335.12 98.33C335.9 98.57 336.59 98.83 337.2 99.12C337.81 99.41 338.21 99.66 338.4 99.85C338.59 100.04 338.73 100.21 338.8 100.35C338.87 100.49 338.93 100.67 338.98 100.89C339.03 101.11 339.06 101.4 339.08 101.74C339.1 102.08 339.11 102.51 339.11 103.01C339.11 103.58 339.1 104.05 339.07 104.45C339.04 104.85 338.99 105.16 338.92 105.42C338.85 105.68 338.75 105.86 338.63 105.98C338.51 106.1 338.33 106.16 338.12 106.16C337.91 106.16 337.56 106.02 337.09 105.75C336.62 105.48 336.05 105.18 335.36 104.86C334.67 104.54 333.89 104.24 332.99 103.98C332.09 103.72 331.11 103.58 330.03 103.58C329.19 103.58 328.46 103.68 327.83 103.89C327.2 104.1 326.68 104.38 326.26 104.74C325.84 105.1 325.53 105.54 325.32 106.04C325.11 106.54 325.01 107.08 325.01 107.65C325.01 108.49 325.24 109.22 325.7 109.83C326.16 110.44 326.77 110.99 327.55 111.47C328.33 111.95 329.2 112.4 330.17 112.82C331.14 113.24 332.14 113.68 333.16 114.15C334.18 114.62 335.17 115.15 336.15 115.75C337.13 116.35 338 117.06 338.76 117.89C339.52 118.72 340.14 119.7 340.61 120.82C341.08 121.94 341.28 123.27 341.28 124.79Z" fill="#6E6D71"/>
<path d="M241.13 62.49C241.13 65.98 240.48 69.04 239.18 71.67C237.88 74.3 236.12 76.5 233.9 78.26C231.68 80.02 229.08 81.34 226.11 82.23C223.14 83.12 219.96 83.56 216.57 83.56C214.28 83.56 212.15 83.37 210.19 83C208.22 82.62 206.49 82.17 204.99 81.64C203.49 81.11 202.23 80.56 201.22 79.97C200.21 79.39 199.48 78.88 199.04 78.43C198.59 77.99 198.28 77.35 198.09 76.51C197.9 75.67 197.81 74.47 197.81 72.9C197.81 71.84 197.84 70.95 197.91 70.23C197.98 69.51 198.09 68.93 198.24 68.49C198.39 68.05 198.6 67.73 198.86 67.54C199.12 67.35 199.41 67.26 199.76 67.26C200.24 67.26 200.91 67.54 201.79 68.11C202.66 68.67 203.78 69.3 205.15 69.98C206.52 70.66 208.15 71.29 210.05 71.85C211.95 72.41 214.14 72.7 216.64 72.7C218.28 72.7 219.75 72.5 221.05 72.11C222.35 71.72 223.45 71.16 224.36 70.44C225.27 69.72 225.96 68.83 226.44 67.77C226.92 66.71 227.16 65.53 227.16 64.23C227.16 62.73 226.75 61.44 225.93 60.36C225.11 59.28 224.04 58.33 222.72 57.49C221.4 56.65 219.91 55.87 218.23 55.13C216.56 54.4 214.83 53.62 213.05 52.8C211.27 51.98 209.55 51.05 207.87 50.01C206.19 48.97 204.7 47.72 203.38 46.27C202.06 44.82 201 43.1 200.17 41.12C199.34 39.14 198.94 36.76 198.94 33.99C198.94 30.81 199.53 28.02 200.71 25.61C201.89 23.2 203.48 21.2 205.48 19.61C207.48 18.02 209.84 16.83 212.56 16.05C215.28 15.26 218.16 14.87 221.2 14.87C222.77 14.87 224.34 14.99 225.92 15.23C227.49 15.47 228.96 15.79 230.33 16.2C231.7 16.61 232.91 17.07 233.97 17.58C235.03 18.09 235.73 18.52 236.07 18.86C236.41 19.2 236.64 19.49 236.76 19.73C236.88 19.97 236.98 20.29 237.07 20.68C237.15 21.07 237.22 21.57 237.25 22.17C237.28 22.77 237.3 23.51 237.3 24.4C237.3 25.39 237.27 26.23 237.22 26.91C237.17 27.59 237.08 28.16 236.96 28.6C236.84 29.04 236.67 29.37 236.45 29.57C236.23 29.78 235.93 29.88 235.55 29.88C235.17 29.88 234.58 29.64 233.76 29.16C232.94 28.68 231.93 28.16 230.73 27.6C229.53 27.04 228.15 26.52 226.58 26.06C225.01 25.6 223.28 25.37 221.4 25.37C219.93 25.37 218.65 25.55 217.55 25.91C216.46 26.27 215.54 26.77 214.81 27.4C214.07 28.03 213.53 28.79 213.17 29.68C212.81 30.57 212.63 31.51 212.63 32.5C212.63 33.97 213.03 35.24 213.84 36.32C214.64 37.4 215.72 38.35 217.07 39.19C218.42 40.03 219.95 40.81 221.66 41.55C223.37 42.29 225.11 43.06 226.89 43.88C228.67 44.7 230.41 45.63 232.12 46.67C233.83 47.71 235.35 48.96 236.68 50.41C238.01 51.86 239.09 53.57 239.91 55.54C240.72 57.51 241.13 59.83 241.13 62.49Z" fill="black"/>
<path d="M307.36 36.19C307.36 39.92 306.78 43.21 305.62 46.08C304.46 48.95 302.77 51.37 300.54 53.33C298.32 55.3 295.59 56.79 292.36 57.82C289.13 58.85 285.33 59.36 280.95 59.36H275.41V80.53C275.41 80.87 275.3 81.18 275.08 81.45C274.86 81.72 274.49 81.95 273.98 82.12C273.47 82.29 272.78 82.43 271.93 82.53C271.08 82.63 269.98 82.68 268.65 82.68C267.35 82.68 266.27 82.63 265.39 82.53C264.52 82.43 263.83 82.29 263.31 82.12C262.79 81.95 262.44 81.73 262.23 81.45C262.02 81.18 261.92 80.87 261.92 80.53V20.85C261.92 19.24 262.34 18.04 263.18 17.24C264.02 16.44 265.12 16.03 266.49 16.03H282.13C283.7 16.03 285.2 16.09 286.62 16.21C288.04 16.33 289.74 16.59 291.72 16.98C293.7 17.37 295.71 18.1 297.74 19.16C299.77 20.22 301.51 21.56 302.94 23.18C304.38 24.8 305.47 26.7 306.22 28.87C306.98 31.06 307.36 33.49 307.36 36.19ZM293.26 37.17C293.26 34.85 292.85 32.93 292.03 31.43C291.21 29.93 290.2 28.82 289 28.1C287.8 27.38 286.55 26.93 285.23 26.74C283.91 26.55 282.56 26.46 281.15 26.46H275.41V48.97H281.46C283.61 48.97 285.42 48.68 286.87 48.1C288.32 47.52 289.51 46.71 290.43 45.66C291.35 44.62 292.05 43.37 292.53 41.92C293.02 40.46 293.26 38.88 293.26 37.17Z" fill="black"/>
<path d="M377.54 80.64C377.54 81.02 377.47 81.33 377.33 81.59C377.19 81.85 376.87 82.06 376.36 82.23C375.85 82.4 375.1 82.52 374.1 82.59C373.11 82.66 371.76 82.69 370.05 82.69C368.61 82.69 367.47 82.66 366.61 82.59C365.76 82.52 365.08 82.39 364.58 82.21C364.08 82.02 363.73 81.78 363.53 81.49C363.32 81.2 363.15 80.85 363.02 80.44L357.07 65.62C356.35 63.95 355.65 62.46 354.97 61.16C354.29 59.86 353.53 58.78 352.69 57.9C351.85 57.03 350.89 56.37 349.79 55.93C348.7 55.49 347.43 55.26 346 55.26H341.8V80.54C341.8 80.88 341.69 81.19 341.47 81.46C341.25 81.73 340.88 81.96 340.37 82.13C339.86 82.3 339.17 82.44 338.32 82.54C337.47 82.64 336.37 82.69 335.04 82.69C333.74 82.69 332.66 82.64 331.78 82.54C330.91 82.44 330.22 82.3 329.7 82.13C329.18 81.96 328.83 81.74 328.62 81.46C328.41 81.19 328.31 80.88 328.31 80.54V20.3C328.31 18.8 328.69 17.71 329.46 17.05C330.23 16.38 331.18 16.05 332.31 16.05H349.48C351.22 16.05 352.66 16.08 353.79 16.15C354.92 16.22 355.94 16.3 356.87 16.41C359.54 16.79 361.94 17.44 364.07 18.36C366.21 19.28 368.02 20.49 369.5 21.97C370.99 23.46 372.12 25.22 372.91 27.25C373.7 29.28 374.09 31.62 374.09 34.25C374.09 36.47 373.81 38.5 373.24 40.33C372.68 42.16 371.85 43.79 370.75 45.23C369.65 46.67 368.31 47.91 366.7 48.97C365.09 50.03 363.27 50.89 361.21 51.53C362.2 52.01 363.13 52.59 364 53.27C364.87 53.95 365.69 54.78 366.46 55.76C367.23 56.73 367.95 57.85 368.64 59.09C369.32 60.34 369.99 61.75 370.64 63.32L376.23 76.39C376.74 77.69 377.08 78.64 377.26 79.23C377.45 79.83 377.54 80.3 377.54 80.64ZM360.16 35.63C360.16 33.44 359.66 31.6 358.67 30.09C357.68 28.59 356.06 27.53 353.8 26.91C353.12 26.74 352.34 26.6 351.47 26.5C350.6 26.4 349.39 26.35 347.86 26.35H341.81V45.17H348.68C350.59 45.17 352.27 44.94 353.7 44.48C355.14 44.02 356.33 43.37 357.29 42.53C358.25 41.69 358.96 40.69 359.44 39.53C359.92 38.36 360.16 37.07 360.16 35.63Z" fill="black"/>
<path d="M411.47 80.54C411.47 80.88 411.36 81.19 411.14 81.46C410.92 81.73 410.55 81.96 410.04 82.13C409.53 82.3 408.84 82.44 407.99 82.54C407.14 82.64 406.04 82.69 404.71 82.69C403.41 82.69 402.33 82.64 401.46 82.54C400.59 82.44 399.9 82.3 399.38 82.13C398.87 81.96 398.5 81.74 398.28 81.46C398.06 81.19 397.95 80.88 397.95 80.54V17.89C397.95 17.55 398.06 17.24 398.28 16.97C398.5 16.7 398.88 16.47 399.41 16.3C399.94 16.13 400.63 15.99 401.49 15.89C402.34 15.79 403.42 15.74 404.72 15.74C406.05 15.74 407.15 15.79 408 15.89C408.85 15.99 409.54 16.13 410.05 16.3C410.56 16.47 410.93 16.69 411.15 16.97C411.37 17.24 411.48 17.55 411.48 17.89V80.54H411.47Z" fill="black"/>
<path d="M491.13 77.67C491.13 78.46 490.99 79.16 490.72 79.77C490.45 80.39 490.08 80.9 489.62 81.31C489.16 81.72 488.61 82.02 487.98 82.21C487.35 82.4 486.71 82.49 486.06 82.49H480.32C479.12 82.49 478.09 82.37 477.22 82.13C476.35 81.89 475.55 81.46 474.81 80.82C474.07 80.19 473.37 79.33 472.68 78.26C472 77.18 471.23 75.79 470.37 74.08L453.86 43.06C452.9 41.21 451.93 39.22 450.94 37.09C449.95 34.95 449.06 32.88 448.27 30.86H448.17C448.31 33.32 448.41 35.77 448.48 38.22C448.55 40.66 448.58 43.19 448.58 45.78V80.49C448.58 80.83 448.49 81.14 448.3 81.41C448.11 81.68 447.79 81.91 447.33 82.1C446.87 82.29 446.24 82.43 445.46 82.54C444.67 82.64 443.67 82.69 442.44 82.69C441.24 82.69 440.25 82.64 439.47 82.54C438.68 82.44 438.07 82.29 437.62 82.1C437.18 81.91 436.87 81.68 436.7 81.41C436.53 81.14 436.44 80.83 436.44 80.49V20.86C436.44 19.25 436.91 18.05 437.85 17.25C438.79 16.45 439.94 16.04 441.31 16.04H448.54C449.84 16.04 450.93 16.15 451.82 16.37C452.71 16.59 453.5 16.96 454.2 17.47C454.9 17.98 455.56 18.69 456.17 19.6C456.79 20.51 457.42 21.63 458.07 22.96L470.99 47.21C471.74 48.68 472.48 50.12 473.22 51.54C473.95 52.96 474.66 54.38 475.35 55.8C476.03 57.22 476.7 58.61 477.35 59.98C478 61.35 478.63 62.71 479.25 64.08H479.3C479.2 61.69 479.12 59.19 479.07 56.59C479.02 53.99 478.99 51.51 478.99 49.16V18.04C478.99 17.7 479.09 17.39 479.3 17.12C479.51 16.85 479.85 16.61 480.33 16.4C480.81 16.19 481.44 16.05 482.23 15.96C483.02 15.88 484.02 15.83 485.25 15.83C486.41 15.83 487.39 15.87 488.17 15.96C488.96 16.05 489.56 16.19 489.99 16.4C490.42 16.61 490.72 16.85 490.89 17.12C491.06 17.39 491.15 17.7 491.15 18.04V77.67H491.13Z" fill="black"/>
<path d="M560.23 21.58C560.23 22.57 560.19 23.42 560.1 24.12C560.01 24.82 559.89 25.38 559.72 25.81C559.55 26.24 559.34 26.55 559.08 26.76C558.82 26.97 558.54 27.07 558.23 27.07H541.62V80.54C541.62 80.88 541.51 81.19 541.29 81.46C541.07 81.73 540.7 81.96 540.19 82.13C539.68 82.3 538.98 82.44 538.11 82.54C537.24 82.64 536.15 82.69 534.86 82.69C533.56 82.69 532.48 82.64 531.6 82.54C530.73 82.44 530.04 82.3 529.52 82.13C529.01 81.96 528.64 81.74 528.42 81.46C528.2 81.19 528.09 80.88 528.09 80.54V27.07H511.48C511.14 27.07 510.85 26.97 510.61 26.76C510.37 26.55 510.17 26.24 509.99 25.81C509.82 25.38 509.69 24.82 509.61 24.12C509.52 23.42 509.48 22.57 509.48 21.58C509.48 20.55 509.52 19.68 509.61 18.97C509.69 18.25 509.82 17.68 509.99 17.25C510.16 16.82 510.37 16.52 510.61 16.33C510.85 16.14 511.14 16.05 511.48 16.05H558.24C558.55 16.05 558.83 16.14 559.09 16.33C559.35 16.52 559.56 16.83 559.73 17.25C559.9 17.68 560.03 18.25 560.11 18.97C560.19 19.68 560.23 20.56 560.23 21.58Z" fill="black"/>
<path d="M164.45 147.18C163.62 147.18 162.95 146.51 162.95 145.68V1.67999C162.95 0.849993 163.62 0.179993 164.45 0.179993C165.28 0.179993 165.95 0.849993 165.95 1.67999V145.68C165.95 146.51 165.28 147.18 164.45 147.18Z" fill="#6E6D71"/>
<path d="M91.86 47.26L76.17 73.38L101.99 118.05H133.33L91.86 47.26Z" fill="url(#paint0_linear_1_58)"/>
<path d="M42.04 97.47L28 73.38L57.25 21.82L70.95 21.81L41.75 73.37L67.78 118.04H88.31L62.51 73.37L105.43 1.67999L50.26 1.66998C43.26 1.66998 36.8 5.39999 33.3 11.46L3.03 63.87C-0.470001 69.93 -0.470001 77.39 3.03 83.45L33.28 135.87C36.78 141.93 42.4 145.67 50.23 145.66H70.18L42.04 97.47Z" fill="url(#paint1_linear_1_58)"/>
<path d="M70.48 122.78L83.88 145.68L109.11 145.69C116.98 145.69 122.04 142.21 125.97 135.9L133.34 122.76L70.48 122.78Z" fill="url(#paint2_linear_1_58)"/>
<path d="M130.6 19.51L118.14 3.26999L94.61 42.27L110.07 68.65L127.63 39.02C131.3 33.06 134.46 25.77 130.6 19.51Z" fill="url(#paint3_linear_1_58)"/>
<defs>
<linearGradient id="paint0_linear_1_58" x1="77.287" y1="69.7608" x2="141.324" y2="111.347" gradientUnits="userSpaceOnUse">
<stop stop-color="#C4161C"/>
<stop offset="0.543" stop-color="#ED1C24"/>
<stop offset="1" stop-color="#C4161C"/>
</linearGradient>
<linearGradient id="paint1_linear_1_58" x1="49.427" y1="145.935" x2="54.5168" y2="0.187629" gradientUnits="userSpaceOnUse">
<stop stop-color="#C4161C"/>
<stop offset="0.543" stop-color="#ED1C24"/>
<stop offset="1" stop-color="#C4161C"/>
</linearGradient>
<linearGradient id="paint2_linear_1_58" x1="81.4067" y1="142.108" x2="362.256" y2="-40.2776" gradientUnits="userSpaceOnUse">
<stop stop-color="#C4161C"/>
<stop offset="0.543" stop-color="#ED1C24"/>
<stop offset="1" stop-color="#C4161C"/>
</linearGradient>
<linearGradient id="paint3_linear_1_58" x1="112.022" y1="77.7717" x2="114.627" y2="3.17987" gradientUnits="userSpaceOnUse">
<stop stop-color="#C4161C"/>
<stop offset="0.543" stop-color="#ED1C24"/>
<stop offset="1" stop-color="#C4161C"/>
</linearGradient>
</defs>
</svg>
